<?xml version="1.0" encoding="UTF-8"?>
<svg xmlns="http://www.w3.org/2000/svg" xmlns:xlink="http://www.w3.org/1999/xlink" width="99pt" height="98pt" viewBox="0 0 99 98" version="1.1">
<g id="surface1">
<path style=" stroke:none;fill-rule:nonzero;fill:rgb(0%,0%,0%);fill-opacity:1;" d="M 33.953125 0.359375 C 33.867188 0.554688 33.800781 0.757812 33.800781 0.8125 C 33.800781 0.867188 33.992188 1.34375 34.230469 1.878906 C 36.265625 6.4375 38.902344 12.789062 40.335938 16.558594 C 40.382812 16.667969 40.289062 16.722656 39.816406 16.859375 C 39.507812 16.953125 39.246094 17.039062 39.238281 17.046875 C 39.222656 17.054688 39.25 17.273438 39.296875 17.53125 L 39.382812 18.007812 L 40.898438 18.195312 L 41.078125 18.601562 C 41.371094 19.296875 41.535156 19.835938 41.535156 20.128906 L 41.535156 20.410156 L 40.953125 20.550781 L 40.375 20.691406 L 40.375 21.152344 C 40.375 21.683594 40.359375 21.675781 41.199219 21.527344 C 41.558594 21.464844 41.6875 21.410156 41.65625 21.339844 C 41.632812 21.277344 41.59375 21.097656 41.570312 20.933594 L 41.527344 20.636719 L 41.71875 20.871094 C 41.9375 21.121094 42.664062 22.792969 43.210938 24.289062 C 43.453125 24.953125 43.527344 25.242188 43.476562 25.3125 C 43.429688 25.367188 43.140625 25.515625 42.832031 25.632812 C 42.097656 25.921875 42.074219 25.945312 42.074219 26.332031 C 42.074219 26.511719 42.121094 26.699219 42.175781 26.746094 C 42.375 26.910156 43.125 27.074219 43.699219 27.074219 L 44.285156 27.074219 L 44.605469 28.105469 C 44.78125 28.675781 45.007812 29.421875 45.097656 29.765625 L 45.261719 30.382812 L 45.066406 30.554688 C 44.960938 30.648438 44.644531 30.804688 44.363281 30.90625 L 43.855469 31.09375 L 43.855469 31.992188 L 44.433594 31.992188 C 44.75 31.992188 45.015625 31.984375 45.015625 31.96875 C 45.015625 31.960938 44.945312 31.765625 44.859375 31.53125 C 44.765625 31.304688 44.703125 31.109375 44.71875 31.101562 C 44.734375 31.09375 44.960938 31.132812 45.230469 31.195312 C 45.703125 31.304688 45.710938 31.304688 45.710938 31.570312 C 45.710938 31.71875 45.796875 32.015625 45.902344 32.222656 C 46.296875 33.011719 47.257812 35.601562 47.257812 35.890625 C 47.257812 36.007812 47.164062 36.03125 46.613281 36.0625 C 46.152344 36.085938 45.878906 36.140625 45.609375 36.28125 C 45.402344 36.382812 45.222656 36.492188 45.207031 36.515625 C 45.191406 36.546875 45.246094 36.765625 45.339844 37.007812 L 45.5 37.445312 L 47.28125 37.492188 L 47.425781 37.921875 C 47.511719 38.15625 47.636719 38.785156 47.722656 39.324219 C 47.875 40.410156 48.078125 43.046875 48.007812 43.125 C 47.722656 43.40625 44.070312 43.59375 33.722656 43.851562 C 24.996094 44.070312 24.59375 44.085938 21.152344 44.503906 C 18.316406 44.855469 14.371094 45.402344 13.574219 45.566406 C 13.195312 45.636719 13.1875 45.636719 12.949219 45.371094 C 12.652344 45.042969 10.75 42.25 7.625 37.578125 L 5.335938 34.152344 L 3.820312 33.417969 L 2.507812 33.363281 L 1.199219 33.308594 L 0.90625 33.605469 L 0.617188 33.910156 L 1.050781 35.351562 C 1.453125 36.710938 1.917969 38.242188 3.550781 43.632812 C 4.433594 46.542969 4.578125 47.074219 4.5 47.136719 C 4.46875 47.167969 3.582031 47.457031 2.515625 47.773438 C -0.292969 48.625 -0.171875 48.546875 0.371094 49.132812 C 0.71875 49.507812 0.757812 49.53125 1.355469 49.617188 C 2.351562 49.773438 4.5 50.234375 4.570312 50.304688 C 4.65625 50.390625 3.75 53.550781 1.625 60.585938 C 0.890625 62.996094 0.914062 62.894531 0.996094 63.519531 C 1.035156 63.824219 1.089844 64.089844 1.105469 64.105469 C 1.199219 64.207031 4.339844 63.902344 4.972656 63.738281 C 5.296875 63.652344 5.027344 64.050781 10.664062 55.375 L 12.941406 51.886719 L 13.21875 51.886719 C 13.691406 51.886719 17.015625 52.308594 22.46875 53.058594 L 24.710938 53.371094 L 28.847656 53.449219 C 31.125 53.488281 35.113281 53.558594 37.703125 53.601562 C 40.304688 53.640625 43.035156 53.695312 43.777344 53.71875 C 44.519531 53.742188 46.027344 53.757812 47.125 53.765625 C 48.554688 53.765625 49.113281 53.789062 49.113281 53.859375 C 49.113281 54.210938 48.570312 55.539062 47.691406 57.371094 C 46.570312 59.699219 46.683594 59.542969 45.925781 59.652344 L 45.554688 59.707031 L 45.554688 60.835938 L 46.382812 61 C 46.832031 61.09375 47.21875 61.179688 47.226562 61.195312 C 47.242188 61.210938 47.148438 61.5 47.023438 61.835938 C 46.902344 62.179688 46.621094 62.988281 46.40625 63.636719 L 46.011719 64.816406 L 44.929688 65.003906 L 43.855469 65.183594 L 43.855469 66.046875 L 44.457031 66.257812 C 44.78125 66.367188 45.144531 66.5 45.261719 66.546875 L 45.46875 66.625 L 45.128906 67.585938 C 44.953125 68.117188 44.664062 68.882812 44.511719 69.285156 C 44.355469 69.691406 44.148438 70.246094 44.046875 70.519531 C 43.953125 70.792969 43.855469 71.027344 43.832031 71.050781 C 43.808594 71.074219 43.476562 70.972656 43.089844 70.824219 L 42.382812 70.558594 L 42.382812 71.699219 L 42.679688 71.777344 C 42.832031 71.816406 43.074219 71.878906 43.195312 71.910156 C 43.328125 71.941406 43.453125 71.96875 43.476562 71.984375 C 43.507812 72 43.21875 72.828125 42.847656 73.828125 L 42.175781 75.644531 L 41.875 75.699219 C 41.710938 75.722656 41.441406 75.769531 41.285156 75.800781 L 40.992188 75.847656 L 40.992188 76.933594 L 41.285156 76.933594 C 41.449219 76.933594 41.601562 76.957031 41.625 76.980469 C 41.6875 77.035156 41.402344 77.753906 40.992188 78.585938 L 40.652344 79.265625 L 40.078125 79.289062 L 39.507812 79.3125 L 39.328125 79.757812 L 39.152344 80.210938 L 39.644531 80.578125 C 39.917969 80.78125 40.140625 80.984375 40.140625 81.03125 C 40.140625 81.246094 36.53125 90.144531 34.246094 95.542969 L 33.519531 97.257812 L 33.785156 97.960938 L 35.347656 98.007812 L 36.273438 97.367188 C 36.785156 97.023438 37.203125 96.6875 37.203125 96.632812 C 37.203125 96.570312 37.164062 96.433594 37.109375 96.324219 C 36.992188 96.058594 37.046875 96.027344 37.386719 96.167969 L 37.667969 96.285156 L 38.5625 95.722656 L 39.46875 95.152344 L 41.558594 91.796875 C 42.703125 89.949219 45.4375 85.546875 47.644531 82.003906 C 49.839844 78.460938 53.128906 73.171875 54.945312 70.238281 L 58.253906 64.910156 L 58.609375 65.207031 L 58.960938 65.496094 L 61.90625 65.644531 L 64.851562 65.800781 L 65.496094 65.464844 L 66.128906 65.128906 L 66.128906 61.132812 L 65.765625 60.90625 C 65.410156 60.671875 65.394531 60.671875 63.3125 60.53125 C 62.160156 60.460938 61.171875 60.382812 61.117188 60.375 C 61.0625 60.359375 61.773438 59.121094 62.855469 57.332031 L 64.699219 54.3125 L 65.527344 53.960938 L 66.351562 53.601562 L 83.261719 53.601562 L 86.476562 53.300781 L 89.6875 52.988281 L 92.316406 52.316406 C 94.878906 51.660156 94.960938 51.628906 95.945312 51.113281 C 97.257812 50.429688 98.003906 49.929688 98.550781 49.359375 L 99 48.898438 L 99 48.40625 C 99 47.921875 99 47.914062 98.636719 47.585938 C 98.003906 47.019531 97.160156 46.511719 95.558594 45.722656 L 94.011719 44.964844 L 91.1875 44.359375 L 88.363281 43.757812 L 77.460938 43.625 L 66.554688 43.5 L 65.5625 43.070312 L 64.574219 42.640625 L 62.671875 39.574219 C 61.628906 37.890625 60.785156 36.5 60.800781 36.484375 C 60.816406 36.46875 61.859375 36.390625 63.113281 36.3125 L 65.386719 36.179688 L 66.128906 35.710938 L 66.128906 31.765625 L 65.78125 31.523438 L 65.425781 31.28125 L 59.207031 31.390625 L 58.679688 31.859375 C 58.394531 32.117188 58.148438 32.308594 58.140625 32.292969 C 58.0625 32.191406 57.101562 30.640625 55.492188 28.011719 C 52.230469 22.683594 49.800781 18.757812 45.339844 11.585938 C 40.390625 3.628906 40.070312 3.128906 39.699219 2.667969 C 39.367188 2.253906 38.472656 1.644531 36.839844 0.710938 L 35.59375 0 L 34.101562 0 Z M 33.953125 0.359375 "/>
</g>
</svg>
